<svg version="1.2" xmlns="http://www.w3.org/2000/svg" viewBox="0 0 600 600" width="600" height="600">
	<title>Nouveau projet</title>
	<style>
		.s0 { fill: #000000;stroke: #000000;stroke-width: 2 } 
	</style>
	<path id="atelier" fill="#000000" aria-label="atelier"  d="m238.35 436h-2.15q-0.7-2.39-0.7-6.86q-2.22 3.6-6.06 5.58q-3.85 1.97-8.71 1.97q-5.2 0-8.39-2.8q-3.15-2.85-3.15-7.39q0-5.16 4.64-8.25q4.69-3.12 12.42-3.19h9.25v-5.48q0-4.71-2.98-7.31q-2.95-2.6-8.46-2.6q-5.13 0-8.56 2.63q-3.43 2.64-3.43 6.52l-1.88-0.07q0-4.58 4.03-7.76q4.02-3.19 9.84-3.19q6.07 0 9.64 3.05q3.57 3.01 3.67 8.53v17.92q0 6.17 0.98 8.39zm-17.62-1.15q5.27 0 9.05-2.35q3.82-2.36 5.72-6.63v-8.9h-8.66q-8.05 0-12.31 3.18q-3.47 2.6-3.47 6.49q0 3.43 2.74 5.82q2.74 2.39 6.93 2.39zm31-46.49h1.9v10.13h8.53v1.9h-8.53v26.63q0 3.99 1.29 5.89q1.31 1.91 4.36 1.91q1.53 0 3.71-0.31l0.32 1.77q-1.15 0.41-3.92 0.41q-4.09 0-5.86-2.25q-1.77-2.29-1.8-7.18v-26.87h-6.94v-1.9h6.94zm33.66 48.32q-4.54 0-8.36-2.42q-3.77-2.46-5.92-6.73q-2.15-4.26-2.15-9.46v-1.56q0-5.2 2.08-9.54q2.08-4.33 5.72-6.76q3.64-2.42 7.94-2.42q6.27 0 10.26 4.47q3.98 4.47 3.98 11.75v1.98h-28.11v2.04q0 4.58 1.91 8.5q1.94 3.88 5.3 6.1q3.4 2.22 7.35 2.22q3.78 0 6.41-1.25q2.67-1.28 4.72-3.92l1.32 0.94q-4.2 6.06-12.45 6.06zm-0.69-37.02q-5.48 0-9.29 4.09q-3.82 4.06-4.48 10.37h26.14v-0.46q0-3.81-1.63-7.07q-1.59-3.29-4.43-5.09q-2.81-1.84-6.31-1.84zm25.3-16.92v53.25h-1.87v-53.25zm14.63 15.74v37.51h-1.87v-37.51zm-2.84-11.72q0-0.79 0.55-1.35q0.56-0.59 1.35-0.59q0.8 0 1.36 0.59q0.59 0.56 0.59 1.35q0 0.8-0.59 1.35q-0.56 0.56-1.36 0.56q-0.79 0-1.35-0.56q-0.55-0.55-0.55-1.35zm28.63 49.92q-4.54 0-8.35-2.42q-3.78-2.46-5.93-6.73q-2.15-4.26-2.15-9.46v-1.56q0-5.2 2.08-9.54q2.08-4.33 5.72-6.76q3.64-2.42 7.94-2.42q6.27 0 10.26 4.47q3.99 4.47 3.99 11.75v1.98h-28.12v2.04q0 4.58 1.91 8.5q1.94 3.88 5.3 6.1q3.4 2.22 7.35 2.22q3.78 0 6.42-1.25q2.67-1.28 4.71-3.92l1.32 0.94q-4.2 6.06-12.45 6.06zm-0.69-37.02q-5.48 0-9.29 4.09q-3.82 4.06-4.47 10.37h26.14v-0.46q0-3.81-1.63-7.07q-1.6-3.29-4.44-5.09q-2.81-1.84-6.31-1.84zm39.73-1.49l-0.21 1.66l-2.43-0.21q-4.78 0-8 3.12q-3.23 3.09-4.23 8.67v24.58h-1.88v-37.51h1.88v7.8q1.52-3.92 4.57-6.2q3.05-2.29 7.66-2.29q1.63 0 2.64 0.38z" />
	<path id="YJA" fill="#000000" aria-label="YJA"  d="m85.84 152.05l66.45 112.58l67.23-112.58h8.71l-72.38 119.04v72.91h-7.12v-72.91l-72.38-119.04zm250.23 135v-135h7.11v133.68q0 27.82-15.16 44.43q-15.16 16.48-40.21 16.48q-26.89 0-41.13-14.37q-14.24-14.37-14.24-41.14h7.12q0 23.47 12 35.99q12.13 12.4 36.25 12.4q21.1 0 34.41-14.11q13.45-14.11 13.85-38.36zm178.9 56.95l-21.49-57.35h-94l-21.36 57.35h-7.78l71.85-191.95h8.7l71.85 191.95zm-68.42-183.38l-44.43 118.91h88.73z" />
	<path id="Forme 1" class="s0" d="m156.2 445l283.1 0.9" />
</svg>